<svg width="18" height="23" viewBox="0 0 18 23" fill="none" xmlns="http://www.w3.org/2000/svg">
<path d="M0.75 4.77295C0.335786 4.77295 0 5.10874 0 5.52295C0 5.93716 0.335786 6.27295 0.75 6.27295V5.52295V4.77295ZM17.2803 6.05328C17.5732 5.76039 17.5732 5.28551 17.2803 4.99262L12.5074 0.219648C12.2145 -0.073245 11.7396 -0.073245 11.4467 0.219648C11.1538 0.512542 11.1538 0.987415 11.4467 1.28031L15.6893 5.52295L11.4467 9.76559C11.1538 10.0585 11.1538 10.5334 11.4467 10.8263C11.7396 11.1191 12.2145 11.1191 12.5074 10.8263L17.2803 6.05328ZM0.75 5.52295V6.27295H16.75V5.52295V4.77295H0.75V5.52295Z" fill="white" fill-opacity="0.75"/>
<path d="M16.75 17.2729C17.1642 17.2729 17.5 16.9372 17.5 16.5229C17.5 16.1087 17.1642 15.7729 16.75 15.7729L16.75 16.5229L16.75 17.2729ZM0.219669 15.9926C-0.0732231 16.2855 -0.0732231 16.7604 0.219669 17.0533L4.99264 21.8262C5.28553 22.1191 5.76041 22.1191 6.0533 21.8262C6.34619 21.5334 6.34619 21.0585 6.0533 20.7656L1.81066 16.5229L6.0533 12.2803C6.34619 11.9874 6.34619 11.5125 6.0533 11.2196C5.76041 10.9268 5.28553 10.9268 4.99264 11.2196L0.219669 15.9926ZM16.75 16.5229L16.75 15.7729L0.75 15.7729L0.75 16.5229L0.75 17.2729L16.75 17.2729L16.75 16.5229Z" fill="white" fill-opacity="0.75"/>
</svg>
